  0
SECTION
  2
HEADER
  9
$ACADVER
  1
AC1014
  9
$HANDSEED
  5
FFFF
  9
$INSUNITS
 70
     4
  9
$MEASUREMENT
 70
     1
  0
ENDSEC
  0
SECTION
  2
TABLES
  0
TABLE
  2
VPORT
  5
8
330
0
100
AcDbSymbolTable
 70
     4
  0
VPORT
  5
2E
330
8
100
AcDbSymbolTableRecord
100
AcDbViewportTableRecord
  2
*ACTIVE
 70
     0
 10
0.0
 20
0.0
 11
1.0
 21
1.0
 12
210.0
 22
148.5
 13
0.0
 23
0.0
 14
10.0
 24
10.0
 15
10.0
 25
10.0
 16
0.0
 26
0.0
 36
1.0
 17
0.0
 27
0.0
 37
0.0
 40
341.0
 41
1.24
 42
50.0
 43
0.0
 44
0.0
 50
0.0
 51
0.0
 71
     0
 72
   100
 73
     1
 74
     3
 75
     0
 76
     0
 77
     0
 78
     0
  0
ENDTAB
  0
TABLE
  2
LTYPE
  5
5
330
0
100
AcDbSymbolTable
 70
     1
  0
LTYPE
  5
14
330
5
100
AcDbSymbolTableRecord
100
AcDbLinetypeTableRecord
  2
BYBLOCK
 70
     0
  3

 72
    65
 73
     0
 40
0.0
  0
LTYPE
  5
15
330
5
100
AcDbSymbolTableRecord
100
AcDbLinetypeTableRecord
  2
BYLAYER
 70
     0
  3

 72
    65
 73
     0
 40
0.0
  0
LTYPE
  5
16
330
5
100
AcDbSymbolTableRecord
100
AcDbLinetypeTableRecord
  2
CONTINUOUS
 70
     0
  3
Solid line
 72
    65
 73
     0
 40
0.0
  0
ENDTAB
  0
TABLE
  2
LAYER
  5
2
100
AcDbSymbolTable
 70
2
  0
LAYER
  5
50
100
AcDbSymbolTableRecord
100
AcDbLayerTableRecord
  2
0
 70
0
  6
CONTINUOUS
  0
LAYER
  5
51
100
AcDbSymbolTableRecord
100
AcDbLayerTableRecord
  2
1
 70
0
  6
CONTINUOUS
  0
ENDTAB
  0
TABLE
  2
STYLE
  5
3
330
0
100
AcDbSymbolTable
 70
     1
  0
STYLE
  5
11
330
3
100
AcDbSymbolTableRecord
100
AcDbTextStyleTableRecord
  2
STANDARD
 70
     0
 40
0.0
 41
1.0
 50
0.0
 71
     0
 42
2.5
  3
txt
  4

  0
ENDTAB
  0
TABLE
  2
VIEW
  5
6
330
0
100
AcDbSymbolTable
 70
     0
  0
ENDTAB
  0
TABLE
  2
UCS
  5
7
330
0
100
AcDbSymbolTable
 70
     0
  0
ENDTAB
  0
TABLE
  2
APPID
  5
9
330
0
100
AcDbSymbolTable
 70
     2
  0
APPID
  5
12
330
9
100
AcDbSymbolTableRecord
100
AcDbRegAppTableRecord
  2
ACAD
 70
     0
  0
ENDTAB
  0
TABLE
  2
DIMSTYLE
  5
A
330
0
100
AcDbSymbolTable
 70
     1
  0
DIMSTYLE
105
27
330
A
100
AcDbSymbolTableRecord
100
AcDbDimStyleTableRecord
  2
ISO-25
 70
     0
  3

  4

  5

  6

  7

 40
1.0
 41
2.5
 42
0.625
 43
3.75
 44
1.25
 45
0.0
 46
0.0
 47
0.0
 48
0.0
140
2.5
141
2.5
142
0.0
143
0.03937007874016
144
1.0
145
0.0
146
1.0
147
0.625
 71
     0
 72
     0
 73
     0
 74
     0
 75
     0
 76
     0
 77
     1
 78
     8
170
     0
171
     3
172
     1
173
     0
174
     0
175
     0
176
     0
177
     0
178
     0
270
     2
271
     2
272
     2
273
     2
274
     3
340
11
275
     0
280
     0
281
     0
282
     0
283
     0
284
     8
285
     0
286
     0
287
     3
288
     0
  0
ENDTAB
  0
TABLE
  2
BLOCK_RECORD
  5
1
330
0
100
AcDbSymbolTable
 70
     1
  0
BLOCK_RECORD
  5
1F
330
1
100
AcDbSymbolTableRecord
100
AcDbBlockTableRecord
  2
*MODEL_SPACE
  0
BLOCK_RECORD
  5
1B
330
1
100
AcDbSymbolTableRecord
100
AcDbBlockTableRecord
  2
*PAPER_SPACE
  0
ENDTAB
  0
ENDSEC
  0
SECTION
  2
BLOCKS
  0
BLOCK
  5
20
330
1F
100
AcDbEntity
  8
0
100
AcDbBlockBegin
  2
*MODEL_SPACE
 70
     0
 10
0.0
 20
0.0
 30
0.0
  3
*MODEL_SPACE
  1

  0
ENDBLK
  5
21
330
1F
100
AcDbEntity
  8
0
100
AcDbBlockEnd
  0
BLOCK
  5
1C
330
1B
100
AcDbEntity
 67
     1
  8
0
100
AcDbBlockBegin
  2
*PAPER_SPACE
  1

  0
ENDBLK
  5
1D
330
1B
100
AcDbEntity
 67
     1
  8
0
100
AcDbBlockEnd
  0
ENDSEC
  0
SECTION
  2
ENTITIES
  0
SPLINE
  5
100
100
AcDbEntity
  8
1
 62
6
100
AcDbSpline
 70
8
 71
3
 72
8
 73
4
 74
0
 40
0
 40
0
 40
0
 40
0
 40
1
 40
1
 40
1
 40
1
 10
57.034641
 20
14.954253
 30
0.0
 10
57.402236
 20
14.954253
 30
0.0
 10
57.699980
 20
14.656296
 30
0.0
 10
57.699980
 20
14.288773
 30
0.0
  0
LINE
  5
101
100
AcDbEntity
  8
1
 62
6
100
AcDbLine
 10
57.699980
 20
14.288773
 30
0.0
 11
57.699980
 21
1.549547
 31
0.0
  0
SPLINE
  5
102
100
AcDbEntity
  8
1
 62
6
100
AcDbSpline
 70
8
 71
3
 72
8
 73
4
 74
0
 40
0
 40
0
 40
0
 40
0
 40
1
 40
1
 40
1
 40
1
 10
57.699980
 20
1.549547
 30
0.0
 10
57.699980
 20
0.723536
 30
0.0
 10
57.029349
 20
0.052919
 30
0.0
 10
56.203497
 20
0.052919
 30
0.0
  0
LINE
  5
103
100
AcDbEntity
  8
1
 62
6
100
AcDbLine
 10
56.203497
 20
0.052919
 30
0.0
 11
1.549545
 21
0.052919
 31
0.0
  0
SPLINE
  5
104
100
AcDbEntity
  8
1
 62
6
100
AcDbSpline
 70
8
 71
3
 72
8
 73
4
 74
0
 40
0
 40
0
 40
0
 40
0
 40
1
 40
1
 40
1
 40
1
 10
1.549545
 20
0.052919
 30
0.0
 10
0.723533
 20
0.052919
 30
0.0
 10
0.052917
 20
0.723536
 30
0.0
 10
0.052917
 20
1.549547
 30
0.0
  0
LINE
  5
105
100
AcDbEntity
  8
1
 62
6
100
AcDbLine
 10
0.052917
 20
1.549547
 30
0.0
 11
0.052917
 21
38.908922
 31
0.0
  0
SPLINE
  5
106
100
AcDbEntity
  8
1
 62
6
100
AcDbSpline
 70
8
 71
3
 72
8
 73
4
 74
0
 40
0
 40
0
 40
0
 40
0
 40
1
 40
1
 40
1
 40
1
 10
0.052917
 20
38.908922
 30
0.0
 10
0.052917
 20
39.735127
 30
0.0
 10
0.723533
 20
40.405758
 30
0.0
 10
1.549545
 20
40.405758
 30
0.0
  0
LINE
  5
107
100
AcDbEntity
  8
1
 62
6
100
AcDbLine
 10
1.549545
 20
40.405758
 30
0.0
 11
27.554731
 21
40.405758
 31
0.0
  0
SPLINE
  5
108
100
AcDbEntity
  8
1
 62
6
100
AcDbSpline
 70
8
 71
3
 72
8
 73
4
 74
0
 40
0
 40
0
 40
0
 40
0
 40
1
 40
1
 40
1
 40
1
 10
27.554731
 20
40.405758
 30
0.0
 10
27.933085
 20
40.405758
 30
0.0
 10
28.239826
 20
40.098841
 30
0.0
 10
28.239826
 20
39.720663
 30
0.0
  0
LINE
  5
109
100
AcDbEntity
  8
1
 62
6
100
AcDbLine
 10
28.239826
 20
39.720663
 30
0.0
 11
28.239826
 21
39.162922
 31
0.0
  0
SPLINE
  5
10a
100
AcDbEntity
  8
1
 62
6
100
AcDbSpline
 70
8
 71
3
 72
8
 73
4
 74
0
 40
0
 40
0
 40
0
 40
0
 40
1
 40
1
 40
1
 40
1
 10
28.239826
 20
39.162922
 30
0.0
 10
28.239826
 20
38.799913
 30
0.0
 10
28.534078
 20
38.505697
 30
0.0
 10
28.897086
 20
38.505697
 30
0.0
  0
LINE
  5
10b
100
AcDbEntity
  8
1
 62
6
100
AcDbLine
 10
28.897086
 20
38.505697
 30
0.0
 11
37.544375
 21
38.505697
 31
0.0
  0
SPLINE
  5
10c
100
AcDbEntity
  8
1
 62
6
100
AcDbSpline
 70
8
 71
3
 72
8
 73
4
 74
0
 40
0
 40
0
 40
0
 40
0
 40
1
 40
1
 40
1
 40
1
 10
37.544375
 20
38.505697
 30
0.0
 10
37.907383
 20
38.505697
 30
0.0
 10
38.201600
 20
38.799913
 30
0.0
 10
38.201600
 20
39.162922
 30
0.0
  0
LINE
  5
10d
100
AcDbEntity
  8
1
 62
6
100
AcDbLine
 10
38.201600
 20
39.162922
 30
0.0
 11
38.201600
 21
39.720663
 31
0.0
  0
SPLINE
  5
10e
100
AcDbEntity
  8
1
 62
6
100
AcDbSpline
 70
8
 71
3
 72
8
 73
4
 74
0
 40
0
 40
0
 40
0
 40
0
 40
1
 40
1
 40
1
 40
1
 10
38.201600
 20
39.720663
 30
0.0
 10
38.201600
 20
40.098841
 30
0.0
 10
38.508164
 20
40.405758
 30
0.0
 10
38.886694
 20
40.405758
 30
0.0
  0
LINE
  5
10f
100
AcDbEntity
  8
1
 62
6
100
AcDbLine
 10
38.886694
 20
40.405758
 30
0.0
 11
56.203497
 21
40.405758
 31
0.0
  0
SPLINE
  5
110
100
AcDbEntity
  8
1
 62
6
100
AcDbSpline
 70
8
 71
3
 72
8
 73
4
 74
0
 40
0
 40
0
 40
0
 40
0
 40
1
 40
1
 40
1
 40
1
 10
56.203497
 20
40.405758
 30
0.0
 10
57.029349
 20
40.405758
 30
0.0
 10
57.699980
 20
39.735127
 30
0.0
 10
57.699980
 20
38.908922
 30
0.0
  0
LINE
  5
111
100
AcDbEntity
  8
1
 62
6
100
AcDbLine
 10
57.699980
 20
38.908922
 30
0.0
 11
57.699980
 21
22.731732
 31
0.0
  0
SPLINE
  5
112
100
AcDbEntity
  8
1
 62
6
100
AcDbSpline
 70
8
 71
3
 72
8
 73
4
 74
0
 40
0
 40
0
 40
0
 40
0
 40
1
 40
1
 40
1
 40
1
 10
57.699980
 20
22.731732
 30
0.0
 10
57.699980
 20
22.555238
 30
0.0
 10
57.630130
 20
22.385975
 30
0.0
 10
57.505247
 20
22.261162
 30
0.0
  0
SPLINE
  5
113
100
AcDbEntity
  8
1
 62
6
100
AcDbSpline
 70
8
 71
3
 72
8
 73
4
 74
0
 40
0
 40
0
 40
0
 40
0
 40
1
 40
1
 40
1
 40
1
 10
57.505247
 20
22.261162
 30
0.0
 10
57.380363
 20
22.136349
 30
0.0
 10
57.211030
 20
22.066252
 30
0.0
 10
57.034641
 20
22.066252
 30
0.0
  0
LINE
  5
114
100
AcDbEntity
  8
1
 62
6
100
AcDbLine
 10
57.034641
 20
22.066252
 30
0.0
 11
53.975352
 21
22.066252
 31
0.0
  0
SPLINE
  5
115
100
AcDbEntity
  8
1
 62
6
100
AcDbSpline
 70
8
 71
3
 72
8
 73
4
 74
0
 40
0
 40
0
 40
0
 40
0
 40
1
 40
1
 40
1
 40
1
 10
53.975352
 20
22.066252
 30
0.0
 10
53.607758
 20
22.066252
 30
0.0
 10
53.310013
 20
21.768296
 30
0.0
 10
53.310013
 20
21.400772
 30
0.0
  0
LINE
  5
116
100
AcDbEntity
  8
1
 62
6
100
AcDbLine
 10
53.310013
 20
21.400772
 30
0.0
 11
53.310013
 21
15.619732
 31
0.0
  0
SPLINE
  5
117
100
AcDbEntity
  8
1
 62
6
100
AcDbSpline
 70
8
 71
3
 72
8
 73
4
 74
0
 40
0
 40
0
 40
0
 40
0
 40
1
 40
1
 40
1
 40
1
 10
53.310013
 20
15.619732
 30
0.0
 10
53.310013
 20
15.252209
 30
0.0
 10
53.607758
 20
14.954253
 30
0.0
 10
53.975352
 20
14.954253
 30
0.0
  0
LINE
  5
118
100
AcDbEntity
  8
1
 62
6
100
AcDbLine
 10
53.975352
 20
14.954253
 30
0.0
 11
57.034641
 21
14.954253
 31
0.0
  0
LINE
  5
119
100
AcDbEntity
  8
1
 62
6
100
AcDbLine
 10
57.034641
 20
14.954253
 30
0.0
 11
57.034641
 21
14.954253
 31
0.0
  0
ENDSEC
  0
SECTION
  2
OBJECTS
  0
DICTIONARY
  5
C
330
0
100
AcDbDictionary
  3
ACAD_GROUP
350
D
  3
ACAD_MLINESTYLE
350
17
  0
DICTIONARY
  5
D
330
C
100
AcDbDictionary
  0
DICTIONARY
  5
1A
330
C
100
AcDbDictionary
  0
DICTIONARY
  5
17
330
C
100
AcDbDictionary
  3
STANDARD
350
18
  0
DICTIONARY
  5
19
330
C
100
AcDbDictionary
  0
ENDSEC
  0
EOF
