<?xml version="1.0" encoding="UTF-8" standalone="no"?>
<!DOCTYPE svg PUBLIC "-//W3C//DTD SVG 1.1//EN" "http://www.w3.org/Graphics/SVG/1.1/DTD/svg11.dtd">
<svg width="100%" height="100%" viewBox="0 0 126 148" version="1.1" xmlns="http://www.w3.org/2000/svg" xmlns:xlink="http://www.w3.org/1999/xlink" xml:space="preserve" xmlns:serif="http://www.serif.com/" style="fill-rule:evenodd;clip-rule:evenodd;stroke-linecap:round;stroke-linejoin:round;stroke-miterlimit:1.5;">
    <g transform="matrix(1,0,0,1,-347.397,-213.887)">
        <g transform="matrix(0.996162,0,0,0.814487,1.28574,43.8651)">
            <path d="M414.579,236.874C414.579,234.978 415.836,233.441 417.386,233.441C422.968,233.441 435.661,233.441 444.223,233.441C446.487,233.441 448.659,232.341 450.26,230.383C451.861,228.425 452.76,225.769 452.76,223C452.76,221.799 452.76,220.573 452.76,219.372C452.76,216.603 453.659,213.947 455.26,211.989C456.861,210.031 459.033,208.931 461.297,208.931L464.263,208.931C466.527,208.931 468.699,210.031 470.3,211.989C471.901,213.947 472.8,216.603 472.8,219.372C472.8,247.913 472.8,327.007 472.8,355.548C472.8,358.317 471.901,360.973 470.3,362.931C468.699,364.889 466.527,365.989 464.263,365.989C460.119,365.989 455.153,365.989 451.009,365.989C448.745,365.989 446.574,367.089 444.973,369.047C443.372,371.005 442.473,373.66 442.473,376.43L442.473,379.081C442.473,381.85 441.573,384.506 439.972,386.464C438.371,388.422 436.2,389.522 433.936,389.522L389.934,389.522C387.67,389.522 385.499,388.422 383.898,386.464C382.297,384.506 381.397,381.85 381.397,379.081L381.397,376.43C381.397,370.663 377.575,365.989 372.861,365.989C367.741,365.989 361.252,365.989 356.132,365.989C353.868,365.989 351.696,364.889 350.095,362.931C348.494,360.973 347.595,358.317 347.595,355.548C347.595,327.007 347.595,247.913 347.595,219.372C347.595,216.603 348.494,213.947 350.095,211.989C351.696,210.031 353.868,208.931 356.132,208.931C357.114,208.931 358.116,208.931 359.098,208.931C361.362,208.931 363.534,210.031 365.135,211.989C366.736,213.947 367.635,216.603 367.635,219.372L367.635,223C367.635,228.767 371.457,233.441 376.172,233.441C378.749,233.441 381.4,233.441 383.317,233.441C384.867,233.441 386.124,234.978 386.124,236.874C386.124,236.875 386.124,236.877 386.124,236.878C386.124,238.774 387.38,240.311 388.93,240.311C394.378,240.311 406.325,240.311 411.772,240.311C413.323,240.311 414.579,238.774 414.579,236.878C414.579,236.877 414.579,236.875 414.579,236.874Z" style="fill:white;stroke:black;stroke-width:0.33px;"/>
        </g>
    </g>
</svg>
